/vscmnt/brussel_pixiu_data/_data_brussel/112/vsc11236/PredSimResults/SUBJ09opt3D/weighted-expIG/worker_04.mot
version=1
nRows=7
nColumns=50
inDegrees=yes
endheader
                time	         pelvis_tilt	         pelvis_list	     pelvis_rotation	           pelvis_tx	           pelvis_ty	           pelvis_tz	       hip_flexion_r	     hip_adduction_r	      hip_rotation_r	        knee_angle_r	       ankle_angle_r	         mtp_angle_r	       hip_flexion_l	     hip_adduction_l	      hip_rotation_l	        knee_angle_l	       ankle_angle_l	         mtp_angle_l	    lumbar_extension	      lumbar_bending	     lumbar_rotation	 ercspn_r/activation	 intobl_r/activation	 extobl_r/activation	    abd_r/activation	    add_r/activation	hamstrings_r/activation	bifemsh_r/activation	glut_max_r/activation	iliopsoas_r/activation	rect_fem_r/activation	  vasti_r/activation	gastroc_r/activation	 soleus_r/activation	tib_ant_r/activation	 ercspn_l/activation	 intobl_l/activation	 extobl_l/activation	    abd_l/activation	    add_l/activation	hamstrings_l/activation	bifemsh_l/activation	glut_max_l/activation	iliopsoas_l/activation	rect_fem_l/activation	  vasti_l/activation	gastroc_l/activation	 soleus_l/activation	tib_ant_l/activation	
          1.99406137	         -3.98535171	          0.77841894	         -7.02034253	          2.23334874	          0.99254502	          0.00097445	        -12.44963333	         -1.89448673	         -4.55363119	        -10.22769473	          5.58799547	         35.44396218	         27.51555407	         -0.93748168	         -6.39424389	         -3.78473016	          3.64248462	          0.22696027	        -13.51931362	          2.22850654	          8.73820655	          0.00999999	          0.00999999	          0.00999999	          0.04058908	          0.00999999	          0.01636280	          0.31215319	          0.01608182	          0.06443035	          0.01000000	          0.00999999	          0.35346747	          0.25993443	          0.01492213	          0.02918470	          0.19518805	          0.04337196	          0.01000000	          0.24968783	          0.05893484	          0.08980744	          0.02183714	          0.13561032	          0.01849712	          0.01197549	          0.01000000	          0.00999999	          0.31652135	
          2.00735511	         -4.06799130	          0.87299523	         -7.03613968	          2.25278399	          0.99028419	          0.00009713	        -13.11155739	         -2.19163448	         -4.98298219	        -10.83631931	          4.61005300	         37.08302374	         27.60158141	         -0.72865304	         -6.66024223	         -5.55222542	          3.13905893	          0.22338761	        -12.98489411	          1.75496072	          8.90630233	          0.02628161	          0.00999999	          0.00999999	          0.03322719	          0.01221553	          0.03155947	          0.27807124	          0.01316496	          0.10052137	          0.00999999	          0.00999999	          0.32705357	          0.24006920	          0.01221561	          0.02389129	          0.15978558	          0.03550531	          0.00999999	          0.25314661	          0.05684968	          0.07351850	          0.08793950	          0.11101383	          0.01514219	          0.01000000	          0.01492217	          0.01612361	          0.32643020	
          2.02064886	         -4.12683254	          1.01518890	         -7.02854536	          2.27274864	          0.98821991	         -0.00080484	        -13.63695596	         -2.55930656	         -5.43181195	        -11.76437063	          3.49830554	         38.75172950	         27.52716965	         -0.51806834	         -6.83514212	         -7.31077436	          2.66107163	          0.20833649	        -12.40591730	          1.21929843	          9.03601210	          0.02151475	          0.00999999	          0.00999999	          0.02720057	          0.00999999	          0.02675106	          0.23126901	          0.01077715	          0.08385155	          0.00999999	          0.00999999	          0.29663051	          0.21604818	          0.00999999	          0.01955798	          0.13080428	          0.02906549	          0.06686158	          0.21250290	          0.06299796	          0.06018400	          0.11812902	          0.09087856	          0.01239575	          0.00999999	          0.01221565	          0.01319917	          0.37534049	
          2.03394260	         -4.16659723	          1.17079036	         -6.98936073	          2.29289814	          0.98657469	         -0.00180218	        -13.94333417	         -2.96679215	         -5.90375465	        -13.10609447	          2.20581204	         40.40274294	         27.35229995	         -0.29411005	         -7.09228840	         -8.90716082	          2.02065648	          0.18448954	        -11.82483112	          0.66967655	          9.12411732	          0.02979234	          0.00999999	          0.00999999	          0.02226703	          0.01000000	          0.04004666	          0.18932232	          0.00999999	          0.11093392	          0.00999999	          0.00999999	          0.24930470	          0.18282345	          0.00999999	          0.02342303	          0.10707949	          0.02379370	          0.11504841	          0.23369895	          0.06123246	          0.04926805	          0.12983934	          0.07439535	          0.01014746	          0.03415460	          0.01000002	          0.01080515	          0.40984119	
          2.04723634	         -4.18899228	          1.33630401	         -6.92288593	          2.31291523	          0.98551263	         -0.00289594	        -13.95068889	         -3.41890771	         -6.39346861	        -14.96840904	          0.76812670	         41.86050878	         27.17764430	         -0.06380746	         -7.40250826	        -10.55324008	          1.57234602	          0.15184625	        -11.27663921	          0.11014473	          9.17067675	          0.07168304	          0.00999999	          0.00999999	          0.01822832	          0.04385823	          0.05398865	          0.15498375	          0.00999999	          0.09081317	          0.00999999	          0.00999999	          0.20408675	          0.14966362	          0.00999999	          0.02446288	          0.08765782	          0.01947809	          0.16334477	          0.23382650	          0.06304226	          0.04033200	          0.13619782	          0.06090180	          0.00999999	          0.13493179	          0.00999999	          0.00999999	          0.42655948	
          2.06053008	         -4.19722874	          1.51061444	         -6.83527903	          2.33254092	          0.98520316	         -0.00406670	        -13.59901490	         -3.92090308	         -6.90720619	        -17.41377866	         -0.78718182	         42.87580914	         27.00499590	          0.17874231	         -7.70078720	        -12.24000060	          1.45589525	          0.11445370	        -10.78536549	         -0.45790941	          9.17789539	          0.08292678	          0.00999999	          0.00999999	          0.01492214	          0.12936473	          0.06426075	          0.12687339	          0.00999999	          0.09295750	          0.00999999	          0.00999999	          0.16707027	          0.12251820	          0.00999999	          0.02344360	          0.07175877	          0.01594523	          0.18217541	          0.25042164	          0.06219803	          0.03301673	          0.16500931	          0.04985566	          0.00999999	          0.20566188	          0.00999999	          0.00999999	          0.41768590	
          2.07382383	         -4.19388255	          1.67563856	         -6.72533425	          2.35160522	          0.98572116	         -0.00527322	        -12.85764780	         -4.45947343	         -7.48699470	        -20.48193358	         -2.32281489	         42.98693138	         26.79811825	          0.42287909	         -7.95983470	        -13.89486388	          1.73228557	          0.09100153	        -10.36738274	         -1.01683800	          9.14290483	          0.08769536	          0.00999999	          0.00999999	          0.01221562	          0.18928262	          0.06543110	          0.10386158	          0.00999999	          0.07609724	          0.00999999	          0.00999999	          0.13676769	          0.10029631	          0.00999999	          0.02226701	          0.05874344	          0.01305314	          0.18502321	          0.26492809	          0.06645134	          0.02702828	          0.17162818	          0.04081303	          0.00999999	          0.25033058	          0.00999999	          0.00999999	          0.37033563	
